<svg width="76" height="76" viewBox="0 0 76 76" fill="none" xmlns="http://www.w3.org/2000/svg">
<path d="M2 46.291H13.0201C16.6734 46.291 20.1772 47.7507 22.7605 50.3489C25.3439 52.9471 26.7952 56.4711 26.7952 60.1455" stroke="white" stroke-width="3" stroke-linecap="round" stroke-linejoin="round"/>
<path d="M10.2651 60.1455H37.8152C40.7379 60.1455 43.5409 61.3132 45.6076 63.3918C47.6743 65.4704 48.8353 68.2895 48.8353 71.2291C48.8353 71.964 48.545 72.6688 48.0284 73.1884C47.5117 73.7081 46.811 74 46.0803 74H2" stroke="white" stroke-width="3" stroke-linecap="round" stroke-linejoin="round"/>
<path d="M47.4582 46.291L25.4181 25.7864C13.4062 13.6499 30.9281 -9.84729 47.4582 9.16105C63.9883 -9.79187 81.6755 13.7053 69.4984 25.7864L47.4582 46.291Z" stroke="white" stroke-width="3" stroke-linecap="round" stroke-linejoin="round"/>
</svg>
