<svg width="73" height="72" viewBox="0 0 73 72" fill="none" xmlns="http://www.w3.org/2000/svg">
<path d="M36.1255 69.4285C28.5662 61.135 18.3146 55.7629 7.17351 54.2571C5.90541 54.1173 4.73423 53.5143 3.88601 52.5646C3.0378 51.6148 2.57268 50.3856 2.58042 49.1143V7.71426C2.58037 6.97142 2.7418 6.23739 3.05361 5.56266C3.36543 4.88794 3.82021 4.28853 4.38669 3.80569C4.94319 3.33162 5.59453 2.98098 6.29746 2.77704C7.00039 2.5731 7.73882 2.52053 8.4637 2.62283C19.117 4.38481 28.8628 9.67562 36.1255 17.64V69.4285Z" stroke="white" stroke-width="3" stroke-linecap="round" stroke-linejoin="round"/>
<path d="M36.1255 69.4285C43.6848 61.135 53.9364 55.7629 65.0774 54.2571C66.3455 54.1173 67.5167 53.5143 68.3649 52.5646C69.2131 51.6148 69.6783 50.3856 69.6705 49.1143V7.71426C69.6706 6.97142 69.5091 6.23739 69.1973 5.56266C68.8855 4.88794 68.4307 4.28853 67.8643 3.80569C67.3078 3.33162 66.6564 2.98098 65.9535 2.77704C65.2506 2.5731 64.5121 2.52053 63.7872 2.62283C53.1339 4.38481 43.3882 9.67562 36.1255 17.64V69.4285Z" stroke="white" stroke-width="3" stroke-linecap="round" stroke-linejoin="round"/>
</svg>
