<svg width="305" height="676" viewBox="0 0 305 676" fill="none" xmlns="http://www.w3.org/2000/svg">
<path fill-rule="evenodd" clip-rule="evenodd" d="M1.50488e-07 51.633V51.6362C0.000410982 53.8455 0.842 56.0546 2.52477 57.7402L17.8681 73.1091L33.2659 57.6853C36.5588 54.3287 36.56 48.9456 33.2695 45.5874L33.1534 45.4711C30.1974 42.5649 25.6697 42.2221 22.343 44.4427C21.8762 44.7543 21.433 45.1164 21.0211 45.529L17.8682 48.6872L14.7154 45.529C14.3035 45.1165 13.8603 44.7544 13.3935 44.4427C10.0447 42.2075 5.47922 42.5696 2.52476 45.529C0.841998 47.2146 0.000410981 49.4237 1.50488e-07 51.633ZM25.5848 49.6844C26.458 48.8097 27.7377 48.8031 28.6161 49.6529L28.6796 49.7165C29.6822 50.7561 29.6814 52.5162 28.6776 53.5547L17.8681 64.3824L7.08846 53.5848C6.04454 52.5391 6.04452 50.7301 7.08845 49.6844C7.97032 48.8011 9.26983 48.8011 10.1517 49.6844L17.8682 57.4139L25.5848 49.6844Z" fill="white"/>
<g filter="url(#filter0_d_218_107)">
<rect width="81" height="445" rx="40.5" transform="matrix(-1 0 0 1 207 63)" fill="white"/>
<rect x="7" y="-7" width="95" height="459" rx="47.5" transform="matrix(-1 0 0 1 221 63)" stroke="#54547E" stroke-width="14"/>
</g>
<g filter="url(#filter1_d_218_107)">
<circle cx="87.5" cy="87.5" r="87.5" transform="matrix(-1 0 0 1 254 446)" fill="white"/>
<circle cx="87.5" cy="87.5" r="94.5" transform="matrix(-1 0 0 1 254 446)" stroke="#54547E" stroke-width="14"/>
</g>
<rect width="81" height="445" rx="40.5" transform="matrix(-1 0 0 1 207 63)" fill="white"/>
<rect width="50" height="414" rx="25" transform="matrix(-1 0 0 1 192 79)" fill="#B4B5D1"/>
<circle cx="75" cy="75" r="75" transform="matrix(-1 0 0 1 242 459)" fill="#B4B5D1"/>
<path fill-rule="evenodd" clip-rule="evenodd" d="M167.046 588C174.573 588 181.237 579.124 185.32 565.493C199.004 568.698 209.897 567.308 213.646 560.766C217.389 554.235 213.158 544.059 203.595 533.74C212.838 523.591 216.876 513.634 213.193 507.207C209.482 500.732 198.772 499.304 185.283 502.384C181.197 488.823 174.551 480 167.046 480C159.614 480 153.024 488.653 148.929 501.991C135.34 498.848 124.538 500.256 120.807 506.766C117.07 513.287 121.282 523.441 130.814 533.744C120.963 544.212 116.558 554.584 120.354 561.207C124.122 567.783 135.108 569.154 148.891 565.885C152.984 579.293 159.591 588 167.046 588ZM183.659 550.355C183.209 553.611 182.63 556.708 181.94 559.609C179.116 558.77 176.179 557.738 173.17 556.516C174.784 555.668 176.402 554.773 178.02 553.832C179.958 552.705 181.84 551.543 183.659 550.355ZM167.484 559.319C172.014 561.358 176.454 563.011 180.689 564.264C180.035 566.43 179.315 568.454 178.538 570.318C176.649 574.853 174.522 578.21 172.404 580.361C170.304 582.493 168.497 583.179 167.046 583.179C165.595 583.179 163.788 582.493 161.688 580.361C159.571 578.21 157.443 574.853 155.554 570.318C154.823 568.564 154.142 566.667 153.519 564.643C157.994 563.308 162.694 561.528 167.484 559.319ZM152.245 559.995C155.309 559.077 158.503 557.934 161.778 556.567C159.85 555.575 157.914 554.516 155.98 553.391C154.055 552.271 152.185 551.117 150.376 549.937C150.854 553.491 151.484 556.86 152.245 559.995ZM147.619 561.233C146.502 556.651 145.658 551.639 145.142 546.325C141.079 543.36 137.401 540.278 134.181 537.175C132.548 538.917 131.086 540.646 129.808 542.34C126.854 546.256 125.032 549.79 124.242 552.713C123.459 555.611 123.773 557.531 124.499 558.797C125.224 560.063 126.717 561.296 129.6 562.062C132.507 562.835 136.457 563.012 141.3 562.393C143.302 562.137 145.416 561.75 147.619 561.233ZM158.373 549.215C155.323 547.441 152.43 545.587 149.714 543.682C149.468 540.557 149.339 537.321 149.339 534C149.339 530.551 149.479 527.192 149.743 523.955C152.319 522.168 155.05 520.427 157.92 518.758C161.126 516.893 164.322 515.224 167.466 513.753C170.309 515.114 173.191 516.636 176.08 518.317C178.972 519.999 181.723 521.753 184.316 523.555C184.602 526.915 184.754 530.408 184.754 534C184.754 537.462 184.613 540.833 184.347 544.081C181.613 546.001 178.699 547.87 175.627 549.657C172.889 551.249 170.158 552.699 167.461 554.005C164.465 552.587 161.423 550.989 158.373 549.215ZM178.473 514.141C176.724 513.124 174.973 512.16 173.228 511.251C176.207 510.059 179.112 509.055 181.905 508.242C182.585 511.081 183.159 514.109 183.61 517.292C181.947 516.217 180.233 515.165 178.473 514.141ZM189.539 534C189.539 531.722 189.481 529.476 189.366 527.272C192.108 529.413 194.623 531.591 196.887 533.767C194.636 535.963 192.127 538.165 189.386 540.33C189.487 538.253 189.539 536.141 189.539 534ZM188.872 520.888C193.088 523.935 196.898 527.111 200.223 530.31C201.515 528.883 202.689 527.467 203.739 526.075C206.693 522.159 208.515 518.625 209.305 515.702C210.088 512.803 209.774 510.884 209.048 509.618C208.323 508.352 206.83 507.118 203.947 506.352C201.04 505.58 197.09 505.402 192.247 506.022C190.431 506.254 188.523 506.594 186.54 507.041C187.569 511.321 188.361 515.971 188.872 520.888ZM188.911 546.728C193.135 543.641 196.942 540.429 200.251 537.197C201.711 538.783 203.028 540.355 204.192 541.898C207.146 545.814 208.968 549.349 209.758 552.272C210.541 555.17 210.227 557.089 209.501 558.355C208.776 559.621 207.283 560.855 204.4 561.621C201.493 562.393 197.543 562.571 192.7 561.952C190.755 561.703 188.705 561.331 186.57 560.836C187.611 556.478 188.407 551.739 188.911 546.728ZM153.565 503.209C158.022 504.516 162.708 506.269 167.49 508.449C172.006 506.439 176.429 504.815 180.645 503.59C180.002 501.479 179.297 499.504 178.538 497.682C176.649 493.147 174.522 489.79 172.404 487.639C170.304 485.507 168.497 484.821 167.046 484.821C165.595 484.821 163.788 485.507 161.688 487.639C159.571 489.79 157.443 493.147 155.554 497.682C154.841 499.394 154.175 501.241 153.565 503.209ZM161.73 511.199C158.482 509.862 155.316 508.747 152.282 507.855C151.53 510.929 150.903 514.229 150.424 517.711C152.076 516.644 153.779 515.599 155.527 514.583C157.597 513.379 159.668 512.25 161.73 511.199ZM141.753 505.58C143.627 505.82 145.598 506.174 147.649 506.642C146.544 511.148 145.704 516.072 145.18 521.292C141.123 524.22 137.443 527.267 134.207 530.34C132.745 528.753 131.426 527.179 130.261 525.633C127.307 521.718 125.485 518.183 124.695 515.26C123.912 512.362 124.226 510.443 124.952 509.177C125.677 507.911 127.17 506.677 130.053 505.911C132.96 505.138 136.91 504.961 141.753 505.58ZM144.707 527.656C142.121 529.672 139.736 531.721 137.572 533.771C139.724 535.839 142.103 537.909 144.688 539.947C144.599 537.994 144.553 536.01 144.553 534C144.553 531.854 144.605 529.737 144.707 527.656Z" fill="white"/>
<path fill-rule="evenodd" clip-rule="evenodd" d="M154 531.595V531.597C154 533.285 154.66 534.972 155.978 536.26L168 548L180.064 536.218C182.644 533.654 182.645 529.542 180.067 526.977L179.976 526.888C177.66 524.668 174.113 524.406 171.506 526.102C171.14 526.34 170.793 526.617 170.47 526.932L168 529.344L165.53 526.932C165.207 526.617 164.86 526.34 164.494 526.102C161.87 524.395 158.293 524.671 155.978 526.932C154.66 528.22 154 529.907 154 531.595ZM174.046 530.106C174.73 529.438 175.733 529.433 176.421 530.082L176.471 530.131C177.256 530.925 177.256 532.269 176.469 533.063L168 541.334L159.554 533.086C158.736 532.287 158.736 530.905 159.554 530.106C160.245 529.431 161.263 529.431 161.954 530.106L168 536.011L174.046 530.106Z" fill="white"/>
<line y1="-1.5" x2="43" y2="-1.5" transform="matrix(-1 0 0 1 92 56.8057)" stroke="white" stroke-width="3"/>
<line y1="-1.5" x2="27" y2="-1.5" transform="matrix(-1 0 0 1 92 69.8057)" stroke="white" stroke-width="3"/>
<line y1="-1.5" x2="27" y2="-1.5" transform="matrix(-1 0 0 1 92 82.8057)" stroke="white" stroke-width="3"/>
<line y1="-1.5" x2="27" y2="-1.5" transform="matrix(-1 0 0 1 92 95.8057)" stroke="white" stroke-width="3"/>
<line y1="-1.5" x2="27" y2="-1.5" transform="matrix(-1 0 0 1 92 108.806)" stroke="white" stroke-width="3"/>
<line y1="-1.5" x2="43" y2="-1.5" transform="matrix(-1 0 0 1 92 121.806)" stroke="white" stroke-width="3"/>
<line y1="-1.5" x2="27" y2="-1.5" transform="matrix(-1 0 0 1 92 134.806)" stroke="white" stroke-width="3"/>
<line y1="-1.5" x2="27" y2="-1.5" transform="matrix(-1 0 0 1 92 147.806)" stroke="white" stroke-width="3"/>
<line y1="-1.5" x2="27" y2="-1.5" transform="matrix(-1 0 0 1 92 160.806)" stroke="white" stroke-width="3"/>
<line y1="-1.5" x2="27" y2="-1.5" transform="matrix(-1 0 0 1 92 173.806)" stroke="white" stroke-width="3"/>
<line y1="-1.5" x2="43" y2="-1.5" transform="matrix(-1 0 0 1 92 186.806)" stroke="white" stroke-width="3"/>
<line y1="-1.5" x2="26" y2="-1.5" transform="matrix(-1 0 0 1 92 199.806)" stroke="white" stroke-width="3"/>
<line y1="-1.5" x2="26" y2="-1.5" transform="matrix(-1 0 0 1 92 212.806)" stroke="white" stroke-width="3"/>
<line y1="-1.5" x2="26" y2="-1.5" transform="matrix(-1 0 0 1 92 225.806)" stroke="white" stroke-width="3"/>
<line y1="-1.5" x2="26" y2="-1.5" transform="matrix(-1 0 0 1 92 238.806)" stroke="white" stroke-width="3"/>
<line y1="-1.5" x2="42" y2="-1.5" transform="matrix(-1 0 0 1 92 251.806)" stroke="white" stroke-width="3"/>
<line y1="-1.5" x2="27" y2="-1.5" transform="matrix(-1 0 0 1 92 264.806)" stroke="white" stroke-width="3"/>
<line y1="-1.5" x2="27" y2="-1.5" transform="matrix(-1 0 0 1 92 277.806)" stroke="white" stroke-width="3"/>
<line y1="-1.5" x2="27" y2="-1.5" transform="matrix(-1 0 0 1 92 290.806)" stroke="white" stroke-width="3"/>
<line y1="-1.5" x2="27" y2="-1.5" transform="matrix(-1 0 0 1 92 303.806)" stroke="white" stroke-width="3"/>
<line y1="-1.5" x2="43" y2="-1.5" transform="matrix(-1 0 0 1 92 316.806)" stroke="white" stroke-width="3"/>
<line y1="-1.5" x2="27" y2="-1.5" transform="matrix(-1 0 0 1 92 329.806)" stroke="white" stroke-width="3"/>
<line y1="-1.5" x2="27" y2="-1.5" transform="matrix(-1 0 0 1 92 342.806)" stroke="white" stroke-width="3"/>
<line y1="-1.5" x2="27" y2="-1.5" transform="matrix(-1 0 0 1 92 355.806)" stroke="white" stroke-width="3"/>
<line y1="-1.5" x2="27" y2="-1.5" transform="matrix(-1 0 0 1 92 368.806)" stroke="white" stroke-width="3"/>
<line y1="-1.5" x2="43" y2="-1.5" transform="matrix(-1 0 0 1 92 381.806)" stroke="white" stroke-width="3"/>
<line y1="-1.5" x2="27" y2="-1.5" transform="matrix(-1 0 0 1 92 394.806)" stroke="white" stroke-width="3"/>
<line y1="-1.5" x2="27" y2="-1.5" transform="matrix(-1 0 0 1 92 407.806)" stroke="white" stroke-width="3"/>
<line y1="-1.5" x2="27" y2="-1.5" transform="matrix(-1 0 0 1 92 420.806)" stroke="white" stroke-width="3"/>
<line y1="-1.5" x2="27" y2="-1.5" transform="matrix(-1 0 0 1 92 433.806)" stroke="white" stroke-width="3"/>
<path fill-rule="evenodd" clip-rule="evenodd" d="M1.50488e-07 427.633V427.636C0.000410982 429.845 0.842 432.055 2.52477 433.74L17.8681 449.109L33.2659 433.685C36.5588 430.329 36.56 424.946 33.2695 421.587L33.1534 421.471C30.1974 418.565 25.6697 418.222 22.343 420.443C21.8762 420.754 21.433 421.116 21.0211 421.529L17.8682 424.687L14.7154 421.529C14.3035 421.116 13.8603 420.754 13.3935 420.443C10.0447 418.208 5.47922 418.57 2.52476 421.529C0.841998 423.215 0.000410981 425.424 1.50488e-07 427.633ZM25.5848 425.684C26.458 424.81 27.7377 424.803 28.6161 425.653L28.6796 425.717C29.6822 426.756 29.6814 428.516 28.6776 429.555L17.8681 440.382L7.08846 429.585C6.04454 428.539 6.04452 426.73 7.08845 425.684C7.97032 424.801 9.26983 424.801 10.1517 425.684L17.8682 433.414L25.5848 425.684Z" fill="white"/>
<path fill-rule="evenodd" clip-rule="evenodd" d="M1.50488e-07 309.633V309.636C0.000410982 311.845 0.842 314.055 2.52477 315.74L17.8681 331.109L33.2659 315.685C36.5588 312.329 36.56 306.946 33.2695 303.587L33.1534 303.471C30.1974 300.565 25.6697 300.222 22.343 302.443C21.8762 302.754 21.433 303.116 21.0211 303.529L17.8682 306.687L14.7154 303.529C14.3035 303.116 13.8603 302.754 13.3935 302.443C10.0447 300.208 5.47922 300.57 2.52476 303.529C0.841998 305.215 0.000410981 307.424 1.50488e-07 309.633ZM25.5848 307.684C26.458 306.81 27.7377 306.803 28.6161 307.653L28.6796 307.717C29.6822 308.756 29.6814 310.516 28.6776 311.555L17.8681 322.382L7.08846 311.585C6.04454 310.539 6.04452 308.73 7.08845 307.684C7.97032 306.801 9.26983 306.801 10.1517 307.684L17.8682 315.414L25.5848 307.684Z" fill="#6363AB"/>
<path fill-rule="evenodd" clip-rule="evenodd" d="M1.50488e-07 179.633V179.636C0.000410982 181.845 0.842 184.055 2.52477 185.74L17.8681 201.109L33.2659 185.685C36.5588 182.329 36.56 176.946 33.2695 173.587L33.1534 173.471C30.1974 170.565 25.6697 170.222 22.343 172.443C21.8762 172.754 21.433 173.116 21.0211 173.529L17.8682 176.687L14.7154 173.529C14.3035 173.116 13.8603 172.754 13.3935 172.443C10.0447 170.208 5.47922 170.57 2.52476 173.529C0.841998 175.215 0.000410981 177.424 1.50488e-07 179.633ZM25.5848 177.684C26.458 176.81 27.7377 176.803 28.6161 177.653L28.6796 177.717C29.6822 178.756 29.6814 180.516 28.6776 181.555L17.8681 192.382L7.08846 181.585C6.04454 180.539 6.04452 178.73 7.08845 177.684C7.97032 176.801 9.26983 176.801 10.1517 177.684L17.8682 185.414L25.5848 177.684Z" fill="white"/>
<defs>
<filter id="filter0_d_218_107" x="59" y="0" width="215" height="579" filterUnits="userSpaceOnUse" color-interpolation-filters="sRGB">
<feFlood flood-opacity="0" result="BackgroundImageFix"/>
<feColorMatrix in="SourceAlpha" type="matrix" values="0 0 0 0 0 0 0 0 0 0 0 0 0 0 0 0 0 0 127 0" result="hardAlpha"/>
<feMorphology radius="2" operator="dilate" in="SourceAlpha" result="effect1_dropShadow_218_107"/>
<feOffset dy="4"/>
<feGaussianBlur stdDeviation="25.5"/>
<feComposite in2="hardAlpha" operator="out"/>
<feColorMatrix type="matrix" values="0 0 0 0 0 0 0 0 0 0 0 0 0 0 0 0 0 0 0.25 0"/>
<feBlend mode="normal" in2="BackgroundImageFix" result="effect1_dropShadow_218_107"/>
<feBlend mode="normal" in="SourceGraphic" in2="effect1_dropShadow_218_107" result="shape"/>
</filter>
<filter id="filter1_d_218_107" x="28" y="399" width="277" height="277" filterUnits="userSpaceOnUse" color-interpolation-filters="sRGB">
<feFlood flood-opacity="0" result="BackgroundImageFix"/>
<feColorMatrix in="SourceAlpha" type="matrix" values="0 0 0 0 0 0 0 0 0 0 0 0 0 0 0 0 0 0 127 0" result="hardAlpha"/>
<feMorphology radius="4" operator="dilate" in="SourceAlpha" result="effect1_dropShadow_218_107"/>
<feOffset dy="4"/>
<feGaussianBlur stdDeviation="16.5"/>
<feComposite in2="hardAlpha" operator="out"/>
<feColorMatrix type="matrix" values="0 0 0 0 0 0 0 0 0 0 0 0 0 0 0 0 0 0 0.25 0"/>
<feBlend mode="normal" in2="BackgroundImageFix" result="effect1_dropShadow_218_107"/>
<feBlend mode="normal" in="SourceGraphic" in2="effect1_dropShadow_218_107" result="shape"/>
</filter>
</defs>
</svg>
